<svg version="1.1" id="Layer_1" xmlns="http://www.w3.org/2000/svg" xmlns:xlink="http://www.w3.org/1999/xlink" x="0px" y="0px"
	 width="100%" viewBox="0 0 1071 243" enable-background="new 0 0 1071 243" xml:space="preserve">
<path fill="none" opacity="1.000000" stroke="none" 
	d="
M783.000000,244.000000 
	C522.000061,244.000000 261.500092,244.000000 1.000105,244.000000 
	C1.000070,163.000061 1.000070,82.000122 1.000035,1.000138 
	C357.999878,1.000092 714.999756,1.000092 1071.999756,1.000046 
	C1071.999756,81.999863 1071.999756,162.999725 1071.999878,243.999786 
	C975.833313,244.000000 879.666687,244.000000 783.000000,244.000000 
M481.174438,191.986649 
	C480.640900,190.901932 479.472321,189.654694 479.700073,188.764816 
	C480.250916,186.612289 481.453064,184.626434 482.539276,182.253052 
	C480.251862,182.253052 478.390594,182.253052 476.176941,182.253052 
	C481.654358,186.196808 474.028778,189.012238 476.258911,193.307816 
	C477.982727,192.877396 479.937469,192.389313 482.134644,191.921707 
	C482.134644,191.921707 482.287872,191.696426 482.287872,191.696426 
	C482.287872,191.696426 481.951294,191.968918 481.174438,191.986649 
M238.021149,130.500000 
	C237.951065,102.501244 237.806564,74.502357 237.854614,46.503811 
	C237.869751,37.682266 234.525192,30.753521 227.695709,25.285629 
	C222.413757,21.056726 216.243439,20.198345 209.822632,20.195141 
	C166.324234,20.173439 122.825745,20.132208 79.327522,20.217150 
	C71.006050,20.233398 62.670471,20.562771 54.368347,21.137184 
	C42.657547,21.947441 33.984058,31.046249 33.956459,42.752018 
	C33.833088,95.083038 33.764740,147.414642 33.890858,199.745529 
	C33.928509,215.368210 42.464096,223.984451 58.008881,224.047531 
	C109.839417,224.257874 161.671173,224.289993 213.502121,224.199417 
	C227.852341,224.174347 237.986649,213.472672 238.010315,198.997849 
	C238.047089,176.498627 238.020660,153.999283 238.021149,130.500000 
M882.377930,104.499908 
	C882.377930,121.926796 882.377930,139.353683 882.377930,156.674255 
	C885.648438,156.674255 888.208130,156.674255 891.538940,156.674255 
	C891.538940,144.927673 891.538940,133.549454 891.538940,121.630119 
	C904.362000,130.876877 918.508423,130.550995 926.967346,121.400932 
	C935.309021,112.377716 935.857056,95.631622 928.112366,86.411880 
	C919.287659,75.906395 906.740295,75.244514 891.724792,84.683609 
	C891.309326,82.862152 890.917664,81.145287 890.485474,79.250648 
	C887.847717,79.250648 885.295166,79.250648 882.378235,79.250648 
	C882.378235,87.550995 882.378235,95.525452 882.377930,104.499908 
M295.885010,130.608810 
	C295.885010,127.708336 295.885010,124.807861 295.885010,121.386139 
	C309.241699,130.796371 322.268707,130.780365 330.961395,121.908157 
	C339.609894,113.081070 340.972382,96.734756 333.051605,87.015953 
	C330.195038,83.510925 325.699951,80.579025 321.373535,79.192734 
	C312.353943,76.302635 303.731689,78.218895 296.414093,85.067009 
	C295.916168,82.719795 295.549744,80.992561 295.187408,79.284576 
	C292.328857,79.284576 289.777435,79.284576 287.314606,79.284576 
	C287.314606,105.360489 287.314606,131.079117 287.314606,156.741608 
	C290.213196,156.741608 292.791901,156.741608 295.867523,156.741608 
	C295.867523,148.157578 295.867523,139.866776 295.885010,130.608810 
M648.709473,119.230156 
	C652.956177,106.042641 657.202881,92.855125 661.492615,79.534035 
	C652.503052,78.276802 652.473572,78.268112 650.277405,85.723877 
	C647.458923,95.292702 644.693787,104.877243 641.905701,114.455009 
	C637.247437,103.929146 633.417236,93.485664 630.202148,82.856133 
	C629.009949,78.914398 626.741089,78.991409 623.605591,78.820038 
	C620.170166,78.632263 618.766052,79.749199 617.761902,83.102463 
	C614.645081,93.510925 611.056641,103.778168 607.651123,114.100204 
	C607.268738,114.116852 606.886292,114.133499 606.503845,114.150146 
	C602.895935,102.522446 599.288025,90.894753 595.712830,79.372528 
	C592.496826,79.372528 589.608215,79.372528 586.408569,79.372528 
	C586.710693,80.946053 586.806824,82.103920 587.158508,83.178116 
	C591.605408,96.762367 596.149231,110.315315 600.516724,123.924896 
	C601.472717,126.903778 602.945312,128.196869 606.211060,128.121552 
	C609.401855,128.047974 611.569092,127.442230 612.599365,124.015793 
	C615.278503,115.105804 618.178101,106.261711 621.032227,97.405022 
	C621.635803,95.532349 622.421143,93.718246 623.414001,91.112587 
	C624.272461,92.982140 624.753479,93.854111 625.085205,94.779617 
	C628.561646,104.477081 632.096252,114.155022 635.429504,123.901726 
	C636.632019,127.417976 638.917358,128.028458 642.302612,128.125519 
	C645.782410,128.225296 646.445374,126.255646 647.119141,123.747238 
	C647.463745,122.464302 647.977112,121.226700 648.709473,119.230156 
M812.007446,93.999321 
	C812.461731,105.216843 812.916016,116.434357 813.366516,127.559647 
	C816.311096,127.559647 818.884216,127.559647 820.861572,127.559647 
	C820.861572,114.934731 821.228271,102.650917 820.693787,90.406441 
	C820.456543,84.973221 816.747375,80.898247 811.355042,79.142761 
	C802.598999,76.292198 794.758850,78.063972 787.277405,85.648087 
	C787.277405,72.982658 787.277405,61.590115 787.277405,50.282696 
	C784.011047,50.282696 781.465088,50.282696 779.195923,50.282696 
	C779.195923,76.246284 779.195923,101.821320 779.195923,127.578949 
	C781.979980,127.578949 784.333740,127.578949 787.073853,127.578949 
	C787.073853,125.027008 787.004028,122.881241 787.086365,120.741318 
	C787.386780,112.929413 787.444153,105.092224 788.164612,97.317528 
	C788.725037,91.269806 793.247864,86.882408 798.581421,86.093826 
	C804.971741,85.148987 808.570984,87.081268 812.007446,93.999321 
M503.569366,122.002037 
	C506.062531,119.571960 504.623535,117.447433 502.452728,116.414490 
	C500.978912,115.713196 498.235504,115.774544 497.048218,116.726929 
	C493.190521,119.821434 489.111816,121.427574 484.173157,120.945793 
	C475.946320,120.143250 469.499146,114.098145 469.886688,106.865143 
	C471.636505,106.865143 473.421295,106.869766 475.206116,106.864380 
	C484.867065,106.835205 494.530853,106.912994 504.186066,106.661705 
	C505.739990,106.621262 508.380219,105.344368 508.610535,104.240875 
	C510.408600,95.625580 502.588165,82.434883 494.327942,79.485786 
	C483.751343,75.709686 471.376373,79.051018 465.010376,87.401772 
	C458.327667,96.167892 458.031738,109.686897 464.322815,118.809662 
	C472.411682,130.539413 489.953094,132.201736 503.569366,122.002037 
M676.538147,121.974899 
	C682.831604,128.679779 690.828247,129.136826 699.174072,128.004318 
	C712.625427,126.178986 722.480896,111.855934 719.508484,98.603935 
	C717.011353,87.470833 708.673889,79.679955 697.653687,78.181999 
	C686.684875,76.691025 675.815002,82.172066 670.858459,91.693237 
	C665.817017,101.377518 667.703308,112.242470 676.538147,121.974899 
M990.955078,88.664192 
	C989.604370,87.197731 988.370239,85.599495 986.884399,84.285843 
	C975.884338,74.560013 958.496826,76.186775 949.045227,87.771149 
	C940.359314,98.417236 942.664490,114.881638 954.074280,123.689354 
	C963.327637,130.832428 977.668213,130.275467 986.833618,122.417000 
	C996.133423,114.443268 998.005493,100.869255 990.955078,88.664192 
M390.606659,122.339783 
	C390.437408,112.682930 390.579346,103.005119 389.930878,93.380547 
	C389.702423,89.989960 388.345581,85.993637 386.111023,83.545029 
	C378.781494,75.513382 359.534760,76.484886 351.936920,84.907906 
	C353.914825,88.501534 355.796051,90.147659 360.476227,87.647385 
	C364.165802,85.676331 369.032379,84.976822 373.289246,85.222046 
	C379.377258,85.572784 382.406097,90.649361 381.320435,97.026817 
	C378.396088,97.232056 375.370880,97.168297 372.458038,97.709396 
	C367.263275,98.674385 361.875153,99.364616 357.043732,101.335991 
	C350.201599,104.127815 347.011108,110.858688 348.436951,117.078339 
	C350.064209,124.176453 355.004486,127.943810 362.848724,128.493286 
	C370.269867,129.013153 376.875183,127.352798 382.330719,120.853455 
	C382.893341,124.038551 383.224213,125.911484 383.566010,127.846428 
	C386.028137,127.846428 388.147156,127.846428 390.658051,127.846428 
	C390.658051,126.199417 390.658051,124.746574 390.606659,122.339783 
M404.666260,103.580177 
	C404.666260,111.533684 404.666260,119.487183 404.666260,127.711365 
	C407.969666,127.711365 410.555359,127.711365 413.912445,127.711365 
	C413.912445,119.869003 413.790588,112.243095 413.967255,104.624115 
	C414.047516,101.163429 414.252563,97.578575 415.223663,94.293221 
	C417.006348,88.262169 422.185852,85.421227 428.948029,86.077881 
	C434.435181,86.610718 437.919495,90.073334 438.688263,96.341187 
	C439.112030,99.796219 438.955597,103.328247 438.973450,106.826004 
	C439.008881,113.775017 438.983917,120.724335 438.983917,127.787750 
	C442.341309,127.787750 444.924042,127.787750 447.677032,127.787750 
	C447.677032,116.410408 448.175232,105.256691 447.525269,94.170280 
	C446.967926,84.662979 442.299683,79.819359 434.235626,78.427811 
	C426.555084,77.102455 419.796051,79.050095 414.237183,85.057274 
	C413.303345,78.642647 412.496063,78.202286 404.669495,79.848480 
	C404.669495,87.340195 404.669495,94.973915 404.666260,103.580177 
M563.374878,107.946053 
	C566.707581,109.254158 570.365784,110.682068 569.833374,115.027596 
	C569.336914,119.080025 565.519470,120.402145 562.271790,120.066200 
	C557.280090,119.549843 552.406555,117.891579 547.482849,116.717842 
	C547.500366,116.180161 547.517883,115.642471 547.535461,115.104790 
	C545.545959,116.949478 543.556519,118.794174 541.607788,120.601082 
	C548.653687,129.355667 566.690552,131.188995 574.647766,124.413277 
	C581.939697,118.204056 581.668884,108.372887 573.625977,103.211449 
	C570.375183,101.125275 566.281433,100.354538 562.574158,98.977310 
	C560.257141,98.116531 557.713562,97.602081 555.680908,96.295525 
	C551.701416,93.737640 551.814636,88.737137 556.210510,87.420380 
	C559.665100,86.385559 564.364441,86.386284 567.456604,87.976700 
	C572.358582,90.497940 574.739685,88.541763 577.427979,85.345345 
	C571.295776,75.336632 550.780273,75.782082 545.044434,85.840256 
	C541.229614,92.529831 543.415588,100.325371 550.402039,103.523781 
	C554.297180,105.306961 558.552795,106.302460 563.374878,107.946053 
M759.153320,80.091881 
	C753.746582,79.637306 748.288086,78.494873 742.945801,78.896919 
	C735.773621,79.436684 730.721497,84.980331 730.091614,91.419838 
	C729.531433,97.145828 733.069824,102.018440 740.098755,104.697670 
	C743.965759,106.171669 748.228394,106.770790 751.857117,108.645874 
	C754.025146,109.766197 756.992188,113.030548 756.596069,114.545799 
	C756.022583,116.739594 752.999817,118.939995 750.542542,119.867149 
	C744.396301,122.186272 739.384521,118.745178 734.222290,114.815292 
	C732.132629,116.806190 730.267273,118.583405 727.373535,121.340408 
	C731.541260,123.841682 734.425903,126.854057 737.609131,127.212227 
	C743.918274,127.922112 750.536987,127.949593 756.757446,126.798370 
	C763.031006,125.637314 765.886719,120.949409 766.097595,114.888275 
	C766.362122,107.286293 764.530090,104.197845 757.640564,101.426285 
	C754.885437,100.317955 751.891296,99.818985 749.061462,98.876167 
	C746.874878,98.147675 744.554260,97.486015 742.681152,96.220482 
	C738.527039,93.413719 738.920166,88.488548 743.723938,87.143639 
	C746.933167,86.245148 751.446838,86.149834 754.056885,87.792358 
	C759.055603,90.938225 761.621094,88.654938 765.090271,84.869064 
	C763.252075,83.317795 761.539978,81.872971 759.153320,80.091881 
M860.715942,116.047577 
	C856.153625,121.474281 848.610596,122.330788 842.044800,117.348457 
	C838.047485,114.315170 836.167480,117.008804 834.270386,119.259132 
	C831.776184,122.217773 834.827942,123.843178 836.699219,125.089890 
	C842.916138,129.231750 849.960876,129.051086 856.922913,127.967567 
	C864.684875,126.759552 870.483643,120.822327 870.797546,114.397903 
	C871.127197,107.651337 866.317383,102.231827 857.998779,100.009270 
	C854.956116,99.196335 851.531738,99.032852 848.964172,97.459206 
	C846.776123,96.118195 845.567139,93.179611 843.925049,90.947746 
	C846.218079,89.313072 848.366821,86.662720 850.842163,86.311050 
	C853.683044,85.907463 857.156067,86.945190 859.737427,88.429779 
	C863.594299,90.647934 865.965576,88.627037 867.665527,86.113754 
	C868.125732,85.433372 865.814148,81.814377 864.063354,80.885895 
	C856.330688,76.785309 848.466919,77.257362 840.660828,81.188271 
	C832.792908,85.150291 832.273315,100.081032 841.087463,103.261635 
	C845.600891,104.890312 850.167053,106.374344 854.665100,108.043373 
	C858.033508,109.293236 861.197571,110.849121 860.715942,116.047577 
M1026.864868,120.410049 
	C1024.981567,119.022171 1021.542175,117.713074 1021.467285,116.233650 
	C1020.977173,106.553452 1021.214966,96.836403 1021.214966,86.720840 
	C1024.380005,86.720840 1027.358887,86.690903 1030.337036,86.729454 
	C1033.179932,86.766243 1034.547119,85.171494 1033.778076,82.668251 
	C1033.338623,81.238029 1031.673340,79.425797 1030.316528,79.190704 
	C1027.296265,78.667404 1024.122925,79.027382 1020.374756,79.027382 
	C1020.374756,73.936676 1020.374756,69.556610 1020.374756,65.287262 
	C1016.971436,65.287262 1014.224792,65.287262 1010.901733,65.287262 
	C1010.901733,69.989647 1010.901733,74.367981 1010.901733,78.714798 
	C1007.242065,78.900055 1004.177673,79.055183 1001.410095,79.195282 
	C998.643860,89.886658 1007.558777,85.220726 1012.185852,87.877022 
	C1012.185852,97.462036 1012.078308,107.432274 1012.225586,117.398750 
	C1012.315735,123.502151 1014.719238,127.283134 1019.441772,127.866959 
	C1024.098145,128.442612 1028.881348,127.992638 1033.624023,127.992638 
	C1033.624023,124.837067 1033.624023,122.462822 1033.624023,119.907951 
	C1031.394409,120.137817 1029.580811,120.324791 1026.864868,120.410049 
M530.015686,75.500000 
	C530.015686,67.072563 530.015686,58.645126 530.015686,50.255249 
	C526.925415,50.255249 524.365784,50.255249 521.928101,50.255249 
	C521.928101,76.308258 521.928101,102.008560 521.928101,127.654564 
	C524.668640,127.654564 527.069946,127.654564 530.013306,127.654564 
	C530.013306,110.366135 530.013306,93.433067 530.015686,75.500000 
M333.575653,191.374100 
	C334.673889,193.101318 336.253998,194.245209 336.747589,191.355469 
	C337.303040,188.103653 336.875366,184.683914 336.875366,181.337234 
	C336.450531,181.269043 336.025696,181.200851 335.600861,181.132645 
	C334.929718,181.942490 334.258575,182.752319 333.586456,183.563354 
	C332.627563,182.788818 331.572235,181.936356 330.171387,180.804794 
	C330.171387,185.251846 330.171387,189.098709 330.171387,193.433441 
	C331.696350,192.096237 332.442627,191.441864 333.575653,191.374100 
M819.934692,189.177765 
	C819.800415,186.544159 819.666138,183.910553 819.531799,181.276932 
	C819.083069,181.240005 818.634338,181.203064 818.185608,181.166138 
	C817.659973,182.231476 817.134338,183.296814 816.634583,184.309814 
	C815.696655,183.228043 814.716125,182.097046 812.833374,179.925430 
	C812.833374,185.222504 812.833374,189.048172 812.833374,192.873840 
	C813.164429,192.945221 813.495544,193.016602 813.826599,193.087997 
	C814.373840,192.222244 814.921021,191.356491 815.530090,190.392929 
	C816.938843,191.015411 818.955872,196.692444 819.934692,189.177765 
M663.048584,188.458954 
	C662.953064,191.094177 662.974487,193.453766 666.791931,193.220764 
	C669.731201,193.041351 671.381897,191.597839 670.757202,188.922699 
	C670.066467,185.964813 671.302429,181.078491 665.922180,181.363739 
	C661.869995,181.578583 663.449280,185.218155 663.048584,188.458954 
M586.148987,181.453308 
	C585.668213,185.133133 585.187439,188.812973 584.706665,192.492798 
	C585.198608,192.610672 585.690552,192.728546 586.182495,192.846405 
	C586.819946,191.947174 587.457397,191.047943 588.097473,190.144989 
	C588.930786,191.523773 589.643127,192.702469 590.355530,193.881165 
	C590.793091,193.533707 591.230652,193.186249 591.668213,192.838806 
	C591.668213,189.034668 591.668213,185.230515 591.668213,181.426376 
	C591.318970,181.396729 590.969727,181.367081 590.620422,181.337448 
	C590.263672,182.404037 589.906921,183.470642 589.514954,184.642639 
	C588.540161,183.500397 587.706787,182.523865 586.148987,181.453308 
M879.758362,184.668030 
	C879.359680,183.616730 878.960999,182.565430 878.562317,181.514145 
	C878.310120,181.618652 878.057983,181.723175 877.805786,181.827682 
	C877.805786,185.499573 877.805786,189.171463 877.805786,192.843353 
	C878.158142,192.855560 878.510437,192.867752 878.862793,192.879959 
	C879.445007,191.517487 880.027283,190.154999 880.902527,188.107040 
	C881.955627,190.262375 882.641174,191.665375 883.326721,193.068375 
	C883.645691,192.974915 883.964722,192.881470 884.283691,192.788010 
	C884.283691,188.965347 884.283691,185.142670 884.283691,181.320007 
	C883.813721,181.268250 883.343689,181.216507 882.873718,181.164764 
	C882.573364,182.636444 882.329956,184.125854 881.885925,185.552826 
	C881.840576,185.698303 880.590210,185.468765 879.758362,184.668030 
M460.509521,187.313446 
	C460.604218,183.330902 459.820862,180.236862 454.368347,181.464798 
	C454.368347,185.106674 454.368347,188.662857 454.368347,191.805313 
	C456.411285,192.101288 458.108063,192.347092 459.841034,192.598160 
	C460.017456,191.037430 460.184082,189.563477 460.509521,187.313446 
M733.068237,195.487656 
	C733.468567,196.252853 733.868835,197.018036 734.411926,198.056137 
	C737.117432,192.359634 735.804382,185.598602 730.896729,181.727432 
	C729.781555,185.579056 728.770020,189.072830 727.591431,193.143372 
	C730.087952,192.265335 731.496399,191.769958 732.904907,191.274582 
	C732.985474,192.431168 733.066101,193.587769 733.068237,195.487656 
M520.550537,181.076752 
	C519.806274,184.855682 519.062073,188.634598 518.339844,192.301559 
	C524.719727,193.994583 526.212463,193.524796 526.805359,190.244003 
	C527.895569,184.211548 526.457458,181.752304 520.550537,181.076752 
M503.591522,187.035400 
	C502.879211,185.108307 502.166870,183.181213 501.454559,181.254135 
	C500.886536,181.236282 500.318542,181.218430 499.750519,181.200577 
	C498.756226,184.987991 497.761932,188.775391 496.767639,192.562790 
	C496.951538,192.985031 497.135406,193.407288 497.319305,193.829529 
	C501.471497,188.457397 502.383057,191.737579 502.999146,195.806732 
	C503.532928,195.489243 504.066711,195.171738 504.600525,194.854248 
	C504.349213,192.495712 504.097900,190.137177 503.591522,187.035400 
M769.500610,193.090042 
	C775.234619,192.959244 778.412659,188.362259 775.725342,183.408432 
	C774.992554,182.057632 772.188965,181.467270 770.272827,181.314041 
	C769.582642,181.258835 768.115112,183.475159 768.038696,184.718506 
	C767.871704,187.436905 768.368469,190.196091 769.500610,193.090042 
M624.975281,185.559219 
	C624.304260,187.984314 623.633240,190.409424 623.062744,192.471344 
	C625.837402,192.233276 628.123413,192.037140 631.216187,191.771774 
	C630.444458,188.739685 629.484619,184.968094 628.524719,181.196503 
	C628.042480,181.177948 627.560181,181.159409 627.077942,181.140854 
	C626.434448,182.365326 625.790894,183.589798 624.975281,185.559219 
M434.031677,182.864426 
	C433.208618,186.111221 432.385559,189.358002 431.720825,191.980225 
	C434.630127,191.980225 436.906769,191.980225 439.659271,191.980225 
	C438.951538,189.462952 438.155762,186.197144 437.031403,183.048676 
	C436.836975,182.504227 435.250031,182.457062 434.031677,182.864426 
M690.777100,184.897141 
	C690.154724,183.573715 689.532349,182.250275 688.909973,180.926849 
	C688.408936,180.984604 687.907959,181.042358 687.406982,181.100113 
	C686.383545,184.936386 685.360168,188.772659 684.336792,192.608932 
	C684.580872,193.292206 684.825012,193.975494 685.069153,194.658768 
	C687.103577,189.247253 689.504333,191.568161 692.453308,193.263885 
	C691.847839,190.138580 691.415222,187.905594 690.777100,184.897141 
M293.872345,187.100708 
	C293.684662,185.669708 293.978821,183.808655 293.184662,182.918976 
	C292.239227,181.859741 290.393372,181.487183 288.864380,181.137436 
	C288.408020,181.033051 287.194855,182.007080 287.197723,182.481796 
	C287.218750,185.963120 287.460724,189.443085 287.647064,193.207397 
	C289.940338,191.166077 291.797180,189.513275 293.872345,187.100708 
M569.700989,192.913147 
	C571.391663,188.647064 569.074646,185.379486 567.671143,181.884308 
	C567.094238,181.829300 566.517395,181.774292 565.940552,181.719269 
	C564.805481,185.334274 563.670410,188.949280 562.734436,191.930313 
	C565.556396,192.181854 567.307739,192.337967 569.700989,192.913147 
M797.998169,192.073318 
	C797.132507,188.707184 796.266846,185.341034 795.401245,181.974899 
	C794.740417,181.961670 794.079590,181.948441 793.418823,181.935211 
	C792.204773,185.523849 790.990784,189.112473 790.119080,191.689377 
	C793.189392,192.126160 795.401306,192.440811 797.998169,192.073318 
M314.286682,188.194122 
	C313.575104,186.134415 312.863495,184.074692 312.151917,182.014984 
	C311.622284,181.993179 311.092621,181.971375 310.562988,181.949585 
	C309.312164,185.529907 308.061310,189.110245 306.905548,192.418518 
	C309.886414,192.181473 312.186188,191.998596 314.904663,191.782410 
	C314.860260,191.423157 314.707245,190.185364 314.286682,188.194122 
M862.194214,190.928162 
	C860.253845,186.403732 859.637817,193.259674 857.528931,190.665909 
	C857.528931,188.978790 857.528931,186.542435 857.528931,183.730042 
	C859.346802,184.183273 860.615967,184.499725 862.162903,184.885406 
	C861.544373,180.914688 858.149536,179.873474 856.951538,181.778305 
	C855.284851,184.428177 855.727661,188.404922 855.267517,191.813721 
	C857.542664,191.786530 859.817749,191.759338 862.194214,190.928162 
M713.609741,191.891785 
	C712.537231,191.360199 711.464722,190.828613 710.447205,190.324295 
	C711.527344,187.620926 712.602966,184.928711 713.844971,181.820084 
	C711.251831,181.948227 709.320923,182.043655 706.832886,182.166611 
	C713.341919,185.687027 705.730408,188.942688 707.591125,192.998749 
	C709.334229,192.884003 711.363403,192.750427 713.609741,191.891785 
M839.441833,185.512344 
	C839.894897,184.200211 840.347961,182.888062 840.579712,182.216766 
	C838.228088,182.216766 836.242676,182.216766 834.110229,182.216766 
	C834.980774,185.667969 835.900818,189.315262 836.820862,192.962570 
	C837.168701,192.930527 837.516541,192.898483 837.864380,192.866440 
	C838.299988,190.662231 838.735596,188.458023 839.441833,185.512344 
M548.323853,182.731812 
	C546.402466,182.437637 544.481018,182.143448 542.559631,181.849274 
	C548.423035,185.988678 539.733521,189.165970 542.381226,192.610382 
	C544.448975,192.610382 546.564209,192.610382 548.679443,192.610382 
	C548.691284,192.260757 548.703125,191.911118 548.714966,191.561493 
	C547.519287,191.406830 546.323547,191.252151 544.919312,191.070526 
	C546.025574,188.463165 547.105774,185.917282 548.323853,182.731812 
M412.616760,186.949753 
	C411.846039,188.682648 411.075348,190.415543 410.144714,192.508057 
	C413.011871,192.508057 415.190063,192.508057 417.368286,192.508057 
	C417.396729,192.194031 417.425201,191.880005 417.453644,191.565979 
	C416.284790,191.142426 415.115906,190.718887 413.921265,190.286011 
	C417.296295,183.243027 417.296295,183.243027 414.378906,182.149384 
	C413.897827,183.518707 413.416748,184.888016 412.616760,186.949753 
M351.835663,185.567276 
	C351.835663,187.878265 351.835663,190.189240 351.835663,192.500229 
	C352.171661,192.507965 352.507660,192.515701 352.843689,192.523438 
	C354.081940,190.635147 355.320160,188.746857 356.318573,187.224319 
	C355.595123,186.335892 354.916473,185.502472 354.237793,184.669052 
	C355.447876,183.856476 356.657959,183.043900 358.144684,182.045547 
	C352.767700,180.381836 352.704834,180.412231 351.835663,185.567276 
M374.041412,182.976364 
	C373.363098,183.006989 372.092560,183.020401 372.091095,183.070694 
	C371.997284,186.299454 372.006500,189.531219 372.006500,193.137863 
	C374.369598,192.976196 376.091339,192.858398 377.058075,192.792267 
	C375.906525,190.853455 374.858490,189.609848 374.406677,188.178085 
	C373.975952,186.813080 374.166931,185.251907 374.041412,182.976364 
z"/>
<path fill="#025892" opacity="1.000000" stroke="none" 
	d="
M238.021088,131.000000 
	C238.020660,153.999283 238.047089,176.498627 238.010315,198.997849 
	C237.986649,213.472672 227.852341,224.174347 213.502121,224.199417 
	C161.671173,224.289993 109.839417,224.257874 58.008881,224.047531 
	C42.464096,223.984451 33.928509,215.368210 33.890858,199.745529 
	C33.764740,147.414642 33.833088,95.083038 33.956459,42.752018 
	C33.984058,31.046249 42.657547,21.947441 54.368347,21.137184 
	C62.670471,20.562771 71.006050,20.233398 79.327522,20.217150 
	C122.825745,20.132208 166.324234,20.173439 209.822632,20.195141 
	C216.243439,20.198345 222.413757,21.056726 227.695709,25.285629 
	C234.525192,30.753521 237.869751,37.682266 237.854614,46.503811 
	C237.806564,74.502357 237.951065,102.501244 238.021088,131.000000 
M180.961227,104.525742 
	C191.666519,95.702667 191.366333,86.956360 179.932755,79.199440 
	C177.345337,77.444061 174.463669,76.013054 171.545578,74.872490 
	C154.707855,68.291298 137.230347,67.307663 119.512421,69.598854 
	C108.746483,70.991051 98.170448,73.400177 89.253914,80.114014 
	C78.929893,87.887634 79.311676,97.579819 90.049110,104.815781 
	C100.893227,112.123627 113.272919,114.555336 125.951813,115.398407 
	C144.940353,116.661041 163.522018,115.141342 180.961227,104.525742 
M168.936890,170.534729 
	C173.057343,168.417984 177.473450,166.724503 181.236465,164.096008 
	C188.973114,158.691895 191.571548,147.543335 187.612839,139.552200 
	C152.588089,157.152573 117.609665,156.951767 81.910889,139.134262 
	C81.910889,142.558655 82.172188,145.521088 81.861885,148.422409 
	C80.931000,157.126221 85.297173,162.629532 92.446045,166.486771 
	C94.921333,167.822327 97.496384,169.043625 100.146439,169.973541 
	C122.725723,177.896774 145.430496,177.725922 168.936890,170.534729 
M92.232384,113.366730 
	C89.074905,111.766472 85.917427,110.166222 81.911880,108.136154 
	C81.911880,112.023979 82.180931,114.842293 81.862656,117.592644 
	C80.804520,126.736588 85.430405,132.376205 92.995445,136.309799 
	C94.761299,137.227982 96.553635,138.112625 98.392448,138.870346 
	C114.364662,145.452103 131.094345,146.050735 147.941330,144.554626 
	C159.588440,143.520279 170.930588,140.917969 180.771667,134.004990 
	C188.741119,128.406784 191.646896,117.579239 187.519806,108.850861 
	C156.743561,125.100594 125.177261,126.451103 92.232384,113.366730 
z"/>
<path fill="#0E5F96" opacity="1.000000" stroke="none" 
	d="
M882.378052,103.999908 
	C882.378235,95.525452 882.378235,87.550995 882.378235,79.250648 
	C885.295166,79.250648 887.847717,79.250648 890.485474,79.250648 
	C890.917664,81.145287 891.309326,82.862152 891.724792,84.683609 
	C906.740295,75.244514 919.287659,75.906395 928.112366,86.411880 
	C935.857056,95.631622 935.309021,112.377716 926.967346,121.400932 
	C918.508423,130.550995 904.362000,130.876877 891.538940,121.630119 
	C891.538940,133.549454 891.538940,144.927673 891.538940,156.674255 
	C888.208130,156.674255 885.648438,156.674255 882.377930,156.674255 
	C882.377930,139.353683 882.377930,121.926796 882.378052,103.999908 
M894.442871,113.794891 
	C894.997742,114.411819 895.518555,115.063889 896.112732,115.640289 
	C902.289978,121.632545 912.080383,122.214272 918.325928,116.973930 
	C924.771545,111.565842 926.175293,100.070930 921.271973,92.850853 
	C916.683472,86.094360 907.555054,83.901512 900.030945,87.748375 
	C891.926636,91.891846 889.338135,102.843445 894.442871,113.794891 
z"/>
<path fill="#0A5C93" opacity="1.000000" stroke="none" 
	d="
M295.876282,131.092407 
	C295.867523,139.866776 295.867523,148.157578 295.867523,156.741608 
	C292.791901,156.741608 290.213196,156.741608 287.314606,156.741608 
	C287.314606,131.079117 287.314606,105.360489 287.314606,79.284576 
	C289.777435,79.284576 292.328857,79.284576 295.187408,79.284576 
	C295.549744,80.992561 295.916168,82.719795 296.414093,85.067009 
	C303.731689,78.218895 312.353943,76.302635 321.373535,79.192734 
	C325.699951,80.579025 330.195038,83.510925 333.051605,87.015953 
	C340.972382,96.734756 339.609894,113.081070 330.961395,121.908157 
	C322.268707,130.780365 309.241699,130.796371 295.885010,121.386139 
	C295.885010,124.807861 295.885010,127.708336 295.876282,131.092407 
M328.608429,100.171837 
	C326.126587,90.740662 321.128021,86.147911 313.143127,85.962219 
	C305.334290,85.780602 299.495880,89.751144 297.109589,96.866142 
	C294.399109,104.947845 296.834259,113.485741 303.232483,117.792496 
	C308.855652,121.577560 314.833984,121.843590 320.657898,118.479134 
	C327.332245,114.623390 329.271637,108.312675 328.608429,100.171837 
z"/>
<path fill="#0C5D94" opacity="1.000000" stroke="none" 
	d="
M648.561890,119.599380 
	C647.977112,121.226700 647.463745,122.464302 647.119141,123.747238 
	C646.445374,126.255646 645.782410,128.225296 642.302612,128.125519 
	C638.917358,128.028458 636.632019,127.417976 635.429504,123.901726 
	C632.096252,114.155022 628.561646,104.477081 625.085205,94.779617 
	C624.753479,93.854111 624.272461,92.982140 623.414001,91.112587 
	C622.421143,93.718246 621.635803,95.532349 621.032227,97.405022 
	C618.178101,106.261711 615.278503,115.105804 612.599365,124.015793 
	C611.569092,127.442230 609.401855,128.047974 606.211060,128.121552 
	C602.945312,128.196869 601.472717,126.903778 600.516724,123.924896 
	C596.149231,110.315315 591.605408,96.762367 587.158508,83.178116 
	C586.806824,82.103920 586.710693,80.946053 586.408569,79.372528 
	C589.608215,79.372528 592.496826,79.372528 595.712830,79.372528 
	C599.288025,90.894753 602.895935,102.522446 606.503845,114.150146 
	C606.886292,114.133499 607.268738,114.116852 607.651123,114.100204 
	C611.056641,103.778168 614.645081,93.510925 617.761902,83.102463 
	C618.766052,79.749199 620.170166,78.632263 623.605591,78.820038 
	C626.741089,78.991409 629.009949,78.914398 630.202148,82.856133 
	C633.417236,93.485664 637.247437,103.929146 641.905701,114.455009 
	C644.693787,104.877243 647.458923,95.292702 650.277405,85.723877 
	C652.473572,78.268112 652.503052,78.276802 661.492615,79.534035 
	C657.202881,92.855125 652.956177,106.042641 648.561890,119.599380 
z"/>
<path fill="#095B93" opacity="1.000000" stroke="none" 
	d="
M811.918457,93.602707 
	C808.570984,87.081268 804.971741,85.148987 798.581421,86.093826 
	C793.247864,86.882408 788.725037,91.269806 788.164612,97.317528 
	C787.444153,105.092224 787.386780,112.929413 787.086365,120.741318 
	C787.004028,122.881241 787.073853,125.027008 787.073853,127.578949 
	C784.333740,127.578949 781.979980,127.578949 779.195923,127.578949 
	C779.195923,101.821320 779.195923,76.246284 779.195923,50.282696 
	C781.465088,50.282696 784.011047,50.282696 787.277405,50.282696 
	C787.277405,61.590115 787.277405,72.982658 787.277405,85.648087 
	C794.758850,78.063972 802.598999,76.292198 811.355042,79.142761 
	C816.747375,80.898247 820.456543,84.973221 820.693787,90.406441 
	C821.228271,102.650917 820.861572,114.934731 820.861572,127.559647 
	C818.884216,127.559647 816.311096,127.559647 813.366516,127.559647 
	C812.916016,116.434357 812.461731,105.216843 811.918457,93.602707 
z"/>
<path fill="#0D5E95" opacity="1.000000" stroke="none" 
	d="
M503.294098,122.239395 
	C489.953094,132.201736 472.411682,130.539413 464.322815,118.809662 
	C458.031738,109.686897 458.327667,96.167892 465.010376,87.401772 
	C471.376373,79.051018 483.751343,75.709686 494.327942,79.485786 
	C502.588165,82.434883 510.408600,95.625580 508.610535,104.240875 
	C508.380219,105.344368 505.739990,106.621262 504.186066,106.661705 
	C494.530853,106.912994 484.867065,106.835205 475.206116,106.864380 
	C473.421295,106.869766 471.636505,106.865143 469.886688,106.865143 
	C469.499146,114.098145 475.946320,120.143250 484.173157,120.945793 
	C489.111816,121.427574 493.190521,119.821434 497.048218,116.726929 
	C498.235504,115.774544 500.978912,115.713196 502.452728,116.414490 
	C504.623535,117.447433 506.062531,119.571960 503.294098,122.239395 
M478.669891,99.802109 
	C485.403625,99.802109 492.137329,99.802109 498.879242,99.802109 
	C498.489868,89.840149 493.480560,84.744110 484.685822,84.723198 
	C476.723694,84.704277 469.981018,90.865677 469.421539,99.232391 
	C472.184784,99.415985 474.955353,99.600075 478.669891,99.802109 
z"/>
<path fill="#0C5E94" opacity="1.000000" stroke="none" 
	d="
M676.283813,121.726151 
	C667.703308,112.242470 665.817017,101.377518 670.858459,91.693237 
	C675.815002,82.172066 686.684875,76.691025 697.653687,78.181999 
	C708.673889,79.679955 717.011353,87.470833 719.508484,98.603935 
	C722.480896,111.855934 712.625427,126.178986 699.174072,128.004318 
	C690.828247,129.136826 682.831604,128.679779 676.283813,121.726151 
M689.079956,119.720863 
	C689.730530,119.849022 690.381775,119.974205 691.031677,120.105789 
	C699.999817,121.921463 707.758118,116.979134 709.744263,108.184158 
	C712.060303,97.928711 707.126404,88.579475 698.264465,86.431290 
	C689.440186,84.292229 681.728638,88.370819 678.795349,96.728348 
	C675.446167,106.270569 679.116699,114.962967 689.079956,119.720863 
z"/>
<path fill="#0C5D94" opacity="1.000000" stroke="none" 
	d="
M991.182007,88.952789 
	C998.005493,100.869255 996.133423,114.443268 986.833618,122.417000 
	C977.668213,130.275467 963.327637,130.832428 954.074280,123.689354 
	C942.664490,114.881638 940.359314,98.417236 949.045227,87.771149 
	C958.496826,76.186775 975.884338,74.560013 986.884399,84.285843 
	C988.370239,85.599495 989.604370,87.197731 991.182007,88.952789 
M980.529236,89.907814 
	C973.815308,84.882721 964.850342,84.641090 959.363892,89.337334 
	C952.969055,94.811050 951.292725,105.141876 955.587830,112.608414 
	C959.236511,118.951302 967.979126,122.210037 975.051453,119.863396 
	C986.559998,116.044731 989.688904,100.713387 980.529236,89.907814 
z"/>
<path fill="#0D5E95" opacity="1.000000" stroke="none" 
	d="
M390.632355,122.816757 
	C390.658051,124.746574 390.658051,126.199417 390.658051,127.846428 
	C388.147156,127.846428 386.028137,127.846428 383.566010,127.846428 
	C383.224213,125.911484 382.893341,124.038551 382.330719,120.853455 
	C376.875183,127.352798 370.269867,129.013153 362.848724,128.493286 
	C355.004486,127.943810 350.064209,124.176453 348.436951,117.078339 
	C347.011108,110.858688 350.201599,104.127815 357.043732,101.335991 
	C361.875153,99.364616 367.263275,98.674385 372.458038,97.709396 
	C375.370880,97.168297 378.396088,97.232056 381.320435,97.026817 
	C382.406097,90.649361 379.377258,85.572784 373.289246,85.222046 
	C369.032379,84.976822 364.165802,85.676331 360.476227,87.647385 
	C355.796051,90.147659 353.914825,88.501534 351.936920,84.907906 
	C359.534760,76.484886 378.781494,75.513382 386.111023,83.545029 
	C388.345581,85.993637 389.702423,89.989960 389.930878,93.380547 
	C390.579346,103.005119 390.437408,112.682930 390.632355,122.816757 
M381.981049,105.489128 
	C381.699341,104.932411 381.330139,103.862152 381.148529,103.893089 
	C374.233002,105.071159 367.211548,105.934456 360.522400,107.914490 
	C358.892548,108.396935 357.287231,112.753464 357.631042,115.033066 
	C357.966644,117.258377 360.418213,120.034279 362.617798,120.959938 
	C372.764160,125.229919 381.715576,118.320503 381.981049,105.489128 
z"/>
<path fill="#0C5E94" opacity="1.000000" stroke="none" 
	d="
M404.667877,103.093903 
	C404.669495,94.973915 404.669495,87.340195 404.669495,79.848480 
	C412.496063,78.202286 413.303345,78.642647 414.237183,85.057274 
	C419.796051,79.050095 426.555084,77.102455 434.235626,78.427811 
	C442.299683,79.819359 446.967926,84.662979 447.525269,94.170280 
	C448.175232,105.256691 447.677032,116.410408 447.677032,127.787750 
	C444.924042,127.787750 442.341309,127.787750 438.983917,127.787750 
	C438.983917,120.724335 439.008881,113.775017 438.973450,106.826004 
	C438.955597,103.328247 439.112030,99.796219 438.688263,96.341187 
	C437.919495,90.073334 434.435181,86.610718 428.948029,86.077881 
	C422.185852,85.421227 417.006348,88.262169 415.223663,94.293221 
	C414.252563,97.578575 414.047516,101.163429 413.967255,104.624115 
	C413.790588,112.243095 413.912445,119.869003 413.912445,127.711365 
	C410.555359,127.711365 407.969666,127.711365 404.666260,127.711365 
	C404.666260,119.487183 404.666260,111.533684 404.667877,103.093903 
z"/>
<path fill="#0C5E94" opacity="1.000000" stroke="none" 
	d="
M563.010437,107.799484 
	C558.552795,106.302460 554.297180,105.306961 550.402039,103.523781 
	C543.415588,100.325371 541.229614,92.529831 545.044434,85.840256 
	C550.780273,75.782082 571.295776,75.336632 577.427979,85.345345 
	C574.739685,88.541763 572.358582,90.497940 567.456604,87.976700 
	C564.364441,86.386284 559.665100,86.385559 556.210510,87.420380 
	C551.814636,88.737137 551.701416,93.737640 555.680908,96.295525 
	C557.713562,97.602081 560.257141,98.116531 562.574158,98.977310 
	C566.281433,100.354538 570.375183,101.125275 573.625977,103.211449 
	C581.668884,108.372887 581.939697,118.204056 574.647766,124.413277 
	C566.690552,131.188995 548.653687,129.355667 541.607788,120.601082 
	C543.556519,118.794174 545.545959,116.949478 547.535461,115.104790 
	C547.517883,115.642471 547.500366,116.180161 547.482849,116.717842 
	C552.406555,117.891579 557.280090,119.549843 562.271790,120.066200 
	C565.519470,120.402145 569.336914,119.080025 569.833374,115.027596 
	C570.365784,110.682068 566.707581,109.254158 563.010437,107.799484 
z"/>
<path fill="#0C5E94" opacity="1.000000" stroke="none" 
	d="
M759.490601,80.260010 
	C761.539978,81.872971 763.252075,83.317795 765.090271,84.869064 
	C761.621094,88.654938 759.055603,90.938225 754.056885,87.792358 
	C751.446838,86.149834 746.933167,86.245148 743.723938,87.143639 
	C738.920166,88.488548 738.527039,93.413719 742.681152,96.220482 
	C744.554260,97.486015 746.874878,98.147675 749.061462,98.876167 
	C751.891296,99.818985 754.885437,100.317955 757.640564,101.426285 
	C764.530090,104.197845 766.362122,107.286293 766.097595,114.888275 
	C765.886719,120.949409 763.031006,125.637314 756.757446,126.798370 
	C750.536987,127.949593 743.918274,127.922112 737.609131,127.212227 
	C734.425903,126.854057 731.541260,123.841682 727.373535,121.340408 
	C730.267273,118.583405 732.132629,116.806190 734.222290,114.815292 
	C739.384521,118.745178 744.396301,122.186272 750.542542,119.867149 
	C752.999817,118.939995 756.022583,116.739594 756.596069,114.545799 
	C756.992188,113.030548 754.025146,109.766197 751.857117,108.645874 
	C748.228394,106.770790 743.965759,106.171669 740.098755,104.697670 
	C733.069824,102.018440 729.531433,97.145828 730.091614,91.419838 
	C730.721497,84.980331 735.773621,79.436684 742.945801,78.896919 
	C748.288086,78.494873 753.746582,79.637306 759.490601,80.260010 
z"/>
<path fill="#0C5E94" opacity="1.000000" stroke="none" 
	d="
M860.824097,115.672600 
	C861.197571,110.849121 858.033508,109.293236 854.665100,108.043373 
	C850.167053,106.374344 845.600891,104.890312 841.087463,103.261635 
	C832.273315,100.081032 832.792908,85.150291 840.660828,81.188271 
	C848.466919,77.257362 856.330688,76.785309 864.063354,80.885895 
	C865.814148,81.814377 868.125732,85.433372 867.665527,86.113754 
	C865.965576,88.627037 863.594299,90.647934 859.737427,88.429779 
	C857.156067,86.945190 853.683044,85.907463 850.842163,86.311050 
	C848.366821,86.662720 846.218079,89.313072 843.925049,90.947769 
	C845.567139,93.179611 846.776123,96.118195 848.964172,97.459206 
	C851.531738,99.032852 854.956116,99.196335 857.998779,100.009270 
	C866.317383,102.231827 871.127197,107.651337 870.797546,114.397903 
	C870.483643,120.822327 864.684875,126.759552 856.922913,127.967567 
	C849.960876,129.051086 842.916138,129.231750 836.699219,125.089890 
	C834.827942,123.843178 831.776184,122.217773 834.270386,119.259132 
	C836.167480,117.008804 838.047485,114.315170 842.044800,117.348457 
	C848.610596,122.330788 856.153625,121.474281 860.824097,115.672600 
z"/>
<path fill="#0C5D94" opacity="1.000000" stroke="none" 
	d="
M1027.316040,120.460907 
	C1029.580811,120.324791 1031.394409,120.137817 1033.624023,119.907951 
	C1033.624023,122.462822 1033.624023,124.837067 1033.624023,127.992638 
	C1028.881348,127.992638 1024.098145,128.442612 1019.441772,127.866959 
	C1014.719238,127.283134 1012.315735,123.502151 1012.225586,117.398750 
	C1012.078308,107.432274 1012.185852,97.462036 1012.185852,87.877022 
	C1007.558777,85.220726 998.643860,89.886658 1001.410095,79.195282 
	C1004.177673,79.055183 1007.242065,78.900055 1010.901733,78.714798 
	C1010.901733,74.367981 1010.901733,69.989647 1010.901733,65.287262 
	C1014.224792,65.287262 1016.971436,65.287262 1020.374756,65.287262 
	C1020.374756,69.556610 1020.374756,73.936676 1020.374756,79.027382 
	C1024.122925,79.027382 1027.296265,78.667404 1030.316528,79.190704 
	C1031.673340,79.425797 1033.338623,81.238029 1033.778076,82.668251 
	C1034.547119,85.171494 1033.179932,86.766243 1030.337036,86.729454 
	C1027.358887,86.690903 1024.380005,86.720840 1021.214966,86.720840 
	C1021.214966,96.836403 1020.977173,106.553452 1021.467285,116.233650 
	C1021.542175,117.713074 1024.981567,119.022171 1027.316040,120.460907 
z"/>
<path fill="#045992" opacity="1.000000" stroke="none" 
	d="
M530.014526,76.000000 
	C530.013306,93.433067 530.013306,110.366135 530.013306,127.654564 
	C527.069946,127.654564 524.668640,127.654564 521.928101,127.654564 
	C521.928101,102.008560 521.928101,76.308258 521.928101,50.255249 
	C524.365784,50.255249 526.925415,50.255249 530.015686,50.255249 
	C530.015686,58.645126 530.015686,67.072563 530.014526,76.000000 
z"/>
<path fill="#5D92B5" opacity="1.000000" stroke="none" 
	d="
M333.382263,191.080780 
	C332.442627,191.441864 331.696350,192.096237 330.171387,193.433441 
	C330.171387,189.098709 330.171387,185.251846 330.171387,180.804794 
	C331.572235,181.936356 332.627563,182.788818 333.586456,183.563354 
	C334.258575,182.752319 334.929718,181.942490 335.600861,181.132645 
	C336.025696,181.200851 336.450531,181.269043 336.875366,181.337234 
	C336.875366,184.683914 337.303040,188.103653 336.747589,191.355469 
	C336.253998,194.245209 334.673889,193.101318 333.382263,191.080780 
z"/>
<path fill="#5D92B5" opacity="1.000000" stroke="none" 
	d="
M819.926880,189.603653 
	C818.955872,196.692444 816.938843,191.015411 815.530090,190.392929 
	C814.921021,191.356491 814.373840,192.222244 813.826599,193.087997 
	C813.495544,193.016602 813.164429,192.945221 812.833374,192.873840 
	C812.833374,189.048172 812.833374,185.222504 812.833374,179.925430 
	C814.716125,182.097046 815.696655,183.228043 816.634583,184.309814 
	C817.134338,183.296814 817.659973,182.231476 818.185608,181.166138 
	C818.634338,181.203064 819.083069,181.240005 819.531799,181.276932 
	C819.666138,183.910553 819.800415,186.544159 819.926880,189.603653 
z"/>
<path fill="#4882A8" opacity="1.000000" stroke="none" 
	d="
M663.047974,188.015717 
	C663.449280,185.218155 661.869995,181.578583 665.922180,181.363739 
	C671.302429,181.078491 670.066467,185.964813 670.757202,188.922699 
	C671.381897,191.597839 669.731201,193.041351 666.791931,193.220764 
	C662.974487,193.453766 662.953064,191.094177 663.047974,188.015717 
z"/>
<path fill="#4882A8" opacity="1.000000" stroke="none" 
	d="
M586.511230,181.500336 
	C587.706787,182.523865 588.540161,183.500397 589.514954,184.642639 
	C589.906921,183.470642 590.263672,182.404037 590.620422,181.337448 
	C590.969727,181.367081 591.318970,181.396729 591.668213,181.426376 
	C591.668213,185.230515 591.668213,189.034668 591.668213,192.838806 
	C591.230652,193.186249 590.793091,193.533707 590.355530,193.881165 
	C589.643127,192.702469 588.930786,191.523773 588.097473,190.144989 
	C587.457397,191.047943 586.819946,191.947174 586.182495,192.846405 
	C585.690552,192.728546 585.198608,192.610672 584.706665,192.492798 
	C585.187439,188.812973 585.668213,185.133133 586.511230,181.500336 
z"/>
<path fill="#5D92B5" opacity="1.000000" stroke="none" 
	d="
M879.828735,185.040649 
	C880.590210,185.468765 881.840576,185.698303 881.885925,185.552826 
	C882.329956,184.125854 882.573364,182.636444 882.873718,181.164764 
	C883.343689,181.216507 883.813721,181.268250 884.283691,181.320007 
	C884.283691,185.142670 884.283691,188.965347 884.283691,192.788010 
	C883.964722,192.881470 883.645691,192.974915 883.326721,193.068375 
	C882.641174,191.665375 881.955627,190.262375 880.902527,188.107040 
	C880.027283,190.154999 879.445007,191.517487 878.862793,192.879959 
	C878.510437,192.867752 878.158142,192.855560 877.805786,192.843353 
	C877.805786,189.171463 877.805786,185.499573 877.805786,181.827682 
	C878.057983,181.723175 878.310120,181.618652 878.562317,181.514145 
	C878.960999,182.565430 879.359680,183.616730 879.828735,185.040649 
z"/>
<path fill="#568DB1" opacity="1.000000" stroke="none" 
	d="
M460.430115,187.701492 
	C460.184082,189.563477 460.017456,191.037430 459.841034,192.598160 
	C458.108063,192.347092 456.411285,192.101288 454.368347,191.805313 
	C454.368347,188.662857 454.368347,185.106674 454.368347,181.464798 
	C459.820862,180.236862 460.604218,183.330902 460.430115,187.701492 
z"/>
<path fill="#4882A8" opacity="1.000000" stroke="none" 
	d="
M733.107422,195.115997 
	C733.066101,193.587769 732.985474,192.431168 732.904907,191.274582 
	C731.496399,191.769958 730.087952,192.265335 727.591431,193.143372 
	C728.770020,189.072830 729.781555,185.579056 730.896729,181.727432 
	C735.804382,185.598602 737.117432,192.359634 734.411926,198.056137 
	C733.868835,197.018036 733.468567,196.252853 733.107422,195.115997 
z"/>
<path fill="#5D92B5" opacity="1.000000" stroke="none" 
	d="
M520.975342,181.038666 
	C526.457458,181.752304 527.895569,184.211548 526.805359,190.244003 
	C526.212463,193.524796 524.719727,193.994583 518.339844,192.301559 
	C519.062073,188.634598 519.806274,184.855682 520.975342,181.038666 
M524.809875,186.569168 
	C523.977051,185.615433 523.144226,184.661697 521.643799,182.943375 
	C521.643799,186.848541 521.643799,189.287857 521.643799,191.727173 
	C522.036987,191.812943 522.430176,191.898712 522.823303,191.984482 
	C523.490662,190.444733 524.157959,188.904984 524.809875,186.569168 
z"/>
<path fill="#4882A8" opacity="1.000000" stroke="none" 
	d="
M503.719055,187.407013 
	C504.097900,190.137177 504.349213,192.495712 504.600525,194.854248 
	C504.066711,195.171738 503.532928,195.489243 502.999146,195.806732 
	C502.383057,191.737579 501.471497,188.457397 497.319305,193.829529 
	C497.135406,193.407288 496.951538,192.985031 496.767639,192.562790 
	C497.761932,188.775391 498.756226,184.987991 499.750519,181.200577 
	C500.318542,181.218430 500.886536,181.236282 501.454559,181.254135 
	C502.166870,183.181213 502.879211,185.108307 503.719055,187.407013 
z"/>
<path fill="#4882A8" opacity="1.000000" stroke="none" 
	d="
M769.047363,193.014328 
	C768.368469,190.196091 767.871704,187.436905 768.038696,184.718506 
	C768.115112,183.475159 769.582642,181.258835 770.272827,181.314041 
	C772.188965,181.467270 774.992554,182.057632 775.725342,183.408432 
	C778.412659,188.362259 775.234619,192.959244 769.047363,193.014328 
M772.354980,190.789291 
	C772.655396,188.623871 772.955750,186.458450 773.256104,184.293030 
	C772.493591,184.284256 771.731018,184.275497 770.968506,184.266724 
	C771.001587,186.394333 771.030884,188.522064 771.087097,190.649048 
	C771.088623,190.708054 771.378418,190.759415 772.354980,190.789291 
z"/>
<path fill="#407CA3" opacity="1.000000" stroke="none" 
	d="
M625.061340,185.186737 
	C625.790894,183.589798 626.434448,182.365326 627.077942,181.140854 
	C627.560181,181.159409 628.042480,181.177948 628.524719,181.196503 
	C629.484619,184.968094 630.444458,188.739685 631.216187,191.771774 
	C628.123413,192.037140 625.837402,192.233276 623.062744,192.471344 
	C623.633240,190.409424 624.304260,187.984314 625.061340,185.186737 
z"/>
<path fill="#407CA3" opacity="1.000000" stroke="none" 
	d="
M434.169006,182.522308 
	C435.250031,182.457062 436.836975,182.504227 437.031403,183.048676 
	C438.155762,186.197144 438.951538,189.462952 439.659271,191.980225 
	C436.906769,191.980225 434.630127,191.980225 431.720825,191.980225 
	C432.385559,189.358002 433.208618,186.111221 434.169006,182.522308 
z"/>
<path fill="#4882A8" opacity="1.000000" stroke="none" 
	d="
M690.879822,185.284882 
	C691.415222,187.905594 691.847839,190.138580 692.453308,193.263885 
	C689.504333,191.568161 687.103577,189.247253 685.069153,194.658768 
	C684.825012,193.975494 684.580872,193.292206 684.336792,192.608932 
	C685.360168,188.772659 686.383545,184.936386 687.406982,181.100113 
	C687.907959,181.042358 688.408936,180.984604 688.909973,180.926849 
	C689.532349,182.250275 690.154724,183.573715 690.879822,185.284882 
z"/>
<path fill="#568DB1" opacity="1.000000" stroke="none" 
	d="
M293.763184,187.480591 
	C291.797180,189.513275 289.940338,191.166077 287.647064,193.207397 
	C287.460724,189.443085 287.218750,185.963120 287.197723,182.481796 
	C287.194855,182.007080 288.408020,181.033051 288.864380,181.137436 
	C290.393372,181.487183 292.239227,181.859741 293.184662,182.918976 
	C293.978821,183.808655 293.684662,185.669708 293.763184,187.480591 
z"/>
<path fill="#4882A8" opacity="1.000000" stroke="none" 
	d="
M569.380066,192.703613 
	C567.307739,192.337967 565.556396,192.181854 562.734436,191.930313 
	C563.670410,188.949280 564.805481,185.334274 565.940552,181.719269 
	C566.517395,181.774292 567.094238,181.829300 567.671143,181.884308 
	C569.074646,185.379486 571.391663,188.647064 569.380066,192.703613 
z"/>
<path fill="#4882A8" opacity="1.000000" stroke="none" 
	d="
M797.805664,192.414398 
	C795.401306,192.440811 793.189392,192.126160 790.119080,191.689377 
	C790.990784,189.112473 792.204773,185.523849 793.418823,181.935211 
	C794.079590,181.948441 794.740417,181.961670 795.401245,181.974899 
	C796.266846,185.341034 797.132507,188.707184 797.805664,192.414398 
z"/>
<path fill="#4882A8" opacity="1.000000" stroke="none" 
	d="
M314.420471,188.570847 
	C314.707245,190.185364 314.860260,191.423157 314.904663,191.782410 
	C312.186188,191.998596 309.886414,192.181473 306.905548,192.418518 
	C308.061310,189.110245 309.312164,185.529907 310.562988,181.949585 
	C311.092621,181.971375 311.622284,181.993179 312.151917,182.014984 
	C312.863495,184.074692 313.575104,186.134415 314.420471,188.570847 
z"/>
<path fill="#568DB1" opacity="1.000000" stroke="none" 
	d="
M862.143555,191.330170 
	C859.817749,191.759338 857.542664,191.786530 855.267517,191.813721 
	C855.727661,188.404922 855.284851,184.428177 856.951538,181.778305 
	C858.149536,179.873474 861.544373,180.914688 862.162903,184.885406 
	C860.615967,184.499725 859.346802,184.183273 857.528931,183.730042 
	C857.528931,186.542435 857.528931,188.978790 857.528931,190.665909 
	C859.637817,193.259674 860.253845,186.403732 862.143555,191.330170 
z"/>
<path fill="#407CA3" opacity="1.000000" stroke="none" 
	d="
M713.501160,192.254318 
	C711.363403,192.750427 709.334229,192.884003 707.591125,192.998749 
	C705.730408,188.942688 713.341919,185.687027 706.832886,182.166611 
	C709.320923,182.043655 711.251831,181.948227 713.844971,181.820084 
	C712.602966,184.928711 711.527344,187.620926 710.447205,190.324295 
	C711.464722,190.828613 712.537231,191.360199 713.501160,192.254318 
z"/>
<path fill="#4882A8" opacity="1.000000" stroke="none" 
	d="
M839.306519,185.883087 
	C838.735596,188.458023 838.299988,190.662231 837.864380,192.866440 
	C837.516541,192.898483 837.168701,192.930527 836.820862,192.962570 
	C835.900818,189.315262 834.980774,185.667969 834.110229,182.216766 
	C836.242676,182.216766 838.228088,182.216766 840.579712,182.216766 
	C840.347961,182.888062 839.894897,184.200211 839.306519,185.883087 
z"/>
<path fill="#4882A8" opacity="1.000000" stroke="none" 
	d="
M548.254883,183.051605 
	C547.105774,185.917282 546.025574,188.463165 544.919312,191.070526 
	C546.323547,191.252151 547.519287,191.406830 548.714966,191.561493 
	C548.703125,191.911118 548.691284,192.260757 548.679443,192.610382 
	C546.564209,192.610382 544.448975,192.610382 542.381226,192.610382 
	C539.733521,189.165970 548.423035,185.988678 542.559631,181.849274 
	C544.481018,182.143448 546.402466,182.437637 548.254883,183.051605 
z"/>
<path fill="#407CA3" opacity="1.000000" stroke="none" 
	d="
M412.776184,186.603546 
	C413.416748,184.888016 413.897827,183.518707 414.380188,182.149841 
	C417.296295,183.243027 417.296295,183.243027 413.921265,190.286011 
	C415.115906,190.718887 416.284790,191.142426 417.453644,191.565979 
	C417.425201,191.880005 417.396729,192.194031 417.368286,192.508057 
	C415.190063,192.508057 413.011871,192.508057 410.144714,192.508057 
	C411.075348,190.415543 411.846039,188.682648 412.776184,186.603546 
z"/>
<path fill="#4882A8" opacity="1.000000" stroke="none" 
	d="
M481.892181,191.901245 
	C479.937469,192.389313 477.982727,192.877396 476.258911,193.307816 
	C474.028778,189.012238 481.654358,186.196808 476.176941,182.253052 
	C478.390594,182.253052 480.251862,182.253052 482.539276,182.253052 
	C481.453064,184.626434 480.250916,186.612289 479.700073,188.764816 
	C479.472321,189.654694 480.640900,190.901932 481.551300,191.958923 
	C481.928162,191.931198 481.892181,191.901245 481.892181,191.901245 
z"/>
<path fill="#568DB1" opacity="1.000000" stroke="none" 
	d="
M351.838715,185.123169 
	C352.704834,180.412231 352.767700,180.381836 358.144684,182.045547 
	C356.657959,183.043900 355.447876,183.856476 354.237793,184.669052 
	C354.916473,185.502472 355.595123,186.335892 356.318573,187.224319 
	C355.320160,188.746857 354.081940,190.635147 352.843689,192.523438 
	C352.507660,192.515701 352.171661,192.507965 351.835663,192.500229 
	C351.835663,190.189240 351.835663,187.878265 351.838715,185.123169 
z"/>
<path fill="#407CA3" opacity="1.000000" stroke="none" 
	d="
M374.063019,183.376663 
	C374.166931,185.251907 373.975952,186.813080 374.406677,188.178085 
	C374.858490,189.609848 375.906525,190.853455 377.058075,192.792267 
	C376.091339,192.858398 374.369598,192.976196 372.006500,193.137863 
	C372.006500,189.531219 371.997284,186.299454 372.091095,183.070694 
	C372.092560,183.020401 373.363098,183.006989 374.063019,183.376663 
z"/>
<path fill="#4882A8" opacity="1.000000" stroke="none" 
	d="
M481.939728,191.950058 
	C481.951294,191.968918 482.287872,191.696426 482.287872,191.696426 
	C482.287872,191.696426 482.134644,191.921707 482.013428,191.911469 
	C481.892181,191.901245 481.928162,191.931198 481.939728,191.950058 
z"/>
<path fill="none" opacity="1.000000" stroke="none" 
	d="
M180.664062,104.732544 
	C163.522018,115.141342 144.940353,116.661041 125.951813,115.398407 
	C113.272919,114.555336 100.893227,112.123627 90.049110,104.815781 
	C79.311676,97.579819 78.929893,87.887634 89.253914,80.114014 
	C98.170448,73.400177 108.746483,70.991051 119.512421,69.598854 
	C137.230347,67.307663 154.707855,68.291298 171.545578,74.872490 
	C174.463669,76.013054 177.345337,77.444061 179.932755,79.199440 
	C191.366333,86.956360 191.666519,95.702667 180.664062,104.732544 
z"/>
<path fill="#FAFDFE" opacity="1.000000" stroke="none" 
	d="
M168.573013,170.684891 
	C145.430496,177.725922 122.725723,177.896774 100.146439,169.973541 
	C97.496384,169.043625 94.921333,167.822327 92.446045,166.486771 
	C85.297173,162.629532 80.931000,157.126221 81.861885,148.422409 
	C82.172188,145.521088 81.910889,142.558655 81.910889,139.134262 
	C117.609665,156.951767 152.588089,157.152573 187.612839,139.552200 
	C191.571548,147.543335 188.973114,158.691895 181.236465,164.096008 
	C177.473450,166.724503 173.057343,168.417984 168.573013,170.684891 
z"/>
<path fill="#FBFDFE" opacity="1.000000" stroke="none" 
	d="
M92.565933,113.544586 
	C125.177261,126.451103 156.743561,125.100594 187.519806,108.850861 
	C191.646896,117.579239 188.741119,128.406784 180.771667,134.004990 
	C170.930588,140.917969 159.588440,143.520279 147.941330,144.554626 
	C131.094345,146.050735 114.364662,145.452103 98.392448,138.870346 
	C96.553635,138.112625 94.761299,137.227982 92.995445,136.309799 
	C85.430405,132.376205 80.804520,126.736588 81.862656,117.592644 
	C82.180931,114.842293 81.911880,112.023979 81.911880,108.136154 
	C85.917427,110.166222 89.074905,111.766472 92.565933,113.544586 
z"/>
<path fill="#FBFDFE" opacity="1.000000" stroke="none" 
	d="
M894.235046,113.472092 
	C889.338135,102.843445 891.926636,91.891846 900.030945,87.748375 
	C907.555054,83.901512 916.683472,86.094360 921.271973,92.850853 
	C926.175293,100.070930 924.771545,111.565842 918.325928,116.973930 
	C912.080383,122.214272 902.289978,121.632545 896.112732,115.640289 
	C895.518555,115.063889 894.997742,114.411819 894.235046,113.472092 
z"/>
<path fill="#FAFCFE" opacity="1.000000" stroke="none" 
	d="
M328.682800,100.582115 
	C329.271637,108.312675 327.332245,114.623390 320.657898,118.479134 
	C314.833984,121.843590 308.855652,121.577560 303.232483,117.792496 
	C296.834259,113.485741 294.399109,104.947845 297.109589,96.866142 
	C299.495880,89.751144 305.334290,85.780602 313.143127,85.962219 
	C321.128021,86.147911 326.126587,90.740662 328.682800,100.582115 
z"/>
<path fill="#F6FAFC" opacity="1.000000" stroke="none" 
	d="
M478.197906,99.793137 
	C474.955353,99.600075 472.184784,99.415985 469.421539,99.232391 
	C469.981018,90.865677 476.723694,84.704277 484.685822,84.723198 
	C493.480560,84.744110 498.489868,89.840149 498.879242,99.802109 
	C492.137329,99.802109 485.403625,99.802109 478.197906,99.793137 
z"/>
<path fill="#FBFDFE" opacity="1.000000" stroke="none" 
	d="
M688.725525,119.563194 
	C679.116699,114.962967 675.446167,106.270569 678.795349,96.728348 
	C681.728638,88.370819 689.440186,84.292229 698.264465,86.431290 
	C707.126404,88.579475 712.060303,97.928711 709.744263,108.184158 
	C707.758118,116.979134 699.999817,121.921463 691.031677,120.105789 
	C690.381775,119.974205 689.730530,119.849022 688.725525,119.563194 
z"/>
<path fill="#FAFCFE" opacity="1.000000" stroke="none" 
	d="
M980.794067,90.167618 
	C989.688904,100.713387 986.559998,116.044731 975.051453,119.863396 
	C967.979126,122.210037 959.236511,118.951302 955.587830,112.608414 
	C951.292725,105.141876 952.969055,94.811050 959.363892,89.337334 
	C964.850342,84.641090 973.815308,84.882721 980.794067,90.167618 
z"/>
<path fill="#F6FAFC" opacity="1.000000" stroke="none" 
	d="
M381.989136,105.947929 
	C381.715576,118.320503 372.764160,125.229919 362.617798,120.959938 
	C360.418213,120.034279 357.966644,117.258377 357.631042,115.033066 
	C357.287231,112.753464 358.892548,108.396935 360.522400,107.914490 
	C367.211548,105.934456 374.233002,105.071159 381.148529,103.893089 
	C381.330139,103.862152 381.699341,104.932411 381.989136,105.947929 
z"/>
<path fill="#F6FAFC" opacity="1.000000" stroke="none" 
	d="
M524.817566,186.967194 
	C524.157959,188.904984 523.490662,190.444733 522.823303,191.984482 
	C522.430176,191.898712 522.036987,191.812943 521.643799,191.727173 
	C521.643799,189.287857 521.643799,186.848541 521.643799,182.943375 
	C523.144226,184.661697 523.977051,185.615433 524.817566,186.967194 
z"/>
<path fill="#F6FAFC" opacity="1.000000" stroke="none" 
	d="
M771.944397,190.801819 
	C771.378418,190.759415 771.088623,190.708054 771.087097,190.649048 
	C771.030884,188.522064 771.001587,186.394333 770.968506,184.266724 
	C771.731018,184.275497 772.493591,184.284256 773.256104,184.293030 
	C772.955750,186.458450 772.655396,188.623871 771.944397,190.801819 
z"/>
</svg>